<svg width="16" height="16" viewBox="0 0 16 16" fill="none" xmlns="http://www.w3.org/2000/svg">
<g clip-path="url(#clip0_1417_2193)">
<path fill-rule="evenodd" clip-rule="evenodd" d="M9.4547 2.16671C9.36168 2.16671 9.27547 2.21615 9.22843 2.29675L9.22433 2.30377L6.16683 7.26054V13.8334H11.8907C12.0135 13.8334 12.1198 13.7481 12.1464 13.6284L12.1487 13.618L13.8487 6.97822C13.8798 6.81729 13.7565 6.66671 13.5915 6.66671H11.0002C10.566 6.66671 10.1268 6.52167 9.80696 6.20953C9.47075 5.88138 9.31488 5.41142 9.41491 4.90511L9.89414 2.4794C9.92614 2.31745 9.80219 2.16671 9.63725 2.16671H9.4547ZM4.8335 13.8334V7.73814H2.47118C2.32739 7.73814 2.2104 7.85415 2.20929 7.99811C2.20929 7.99811 2.20929 7.9981 2.20929 7.99811L2.16684 13.5695C2.16572 13.7148 2.28327 13.8334 2.42868 13.8334H4.8335ZM5.12809 6.4048L8.08155 1.6167C8.36843 1.13161 8.89032 0.833374 9.4547 0.833374H9.63725C10.6424 0.833374 11.397 1.75176 11.2022 2.73783L10.723 5.16354C10.7144 5.20671 10.72 5.22632 10.7213 5.23063C10.7228 5.23542 10.726 5.24341 10.7383 5.25535C10.7661 5.28256 10.8492 5.33337 11.0002 5.33337H13.5915C14.6121 5.33337 15.3701 6.27862 15.1487 7.27478L15.1464 7.28518L13.4453 13.9294C13.2788 14.6531 12.6343 15.1667 11.8907 15.1667H2.42868C1.54298 15.1667 0.826756 14.4451 0.833544 13.5594C0.833544 13.5593 0.833544 13.5594 0.833544 13.5594L0.875993 7.98793C0.88271 7.11174 1.59485 6.4048 2.47118 6.4048H5.12809Z" fill="#9A9CA5"/>
</g>
<defs>
<clipPath id="clip0_1417_2193">
<rect width="16" height="16" fill="white"/>
</clipPath>
</defs>
</svg>
