<svg width="20" height="20" viewBox="0 0 20 20" fill="none" xmlns="http://www.w3.org/2000/svg">
<path fill-rule="evenodd" clip-rule="evenodd" d="M10.0002 2.70829C8.38937 2.70829 7.08353 4.01413 7.08353 5.62496C7.08353 7.23579 8.38937 8.54163 10.0002 8.54163C11.611 8.54163 12.9169 7.23579 12.9169 5.62496C12.9169 4.01413 11.611 2.70829 10.0002 2.70829ZM5.41686 5.62496C5.41686 3.09365 7.46889 1.04163 10.0002 1.04163C12.5315 1.04163 14.5835 3.09365 14.5835 5.62496C14.5835 8.15626 12.5315 10.2083 10.0002 10.2083C7.46889 10.2083 5.41686 8.15626 5.41686 5.62496Z" fill="#424551"/>
<path fill-rule="evenodd" clip-rule="evenodd" d="M5.08691 12.7083C4.50914 12.7083 4.05756 12.9896 3.87424 13.3938C3.62053 13.9532 3.39078 14.6193 3.33656 15.2509C3.31233 15.5333 3.43007 15.7414 3.5923 15.8422C4.44993 16.375 6.43719 17.2916 10.0002 17.2916C13.5632 17.2916 15.5505 16.375 16.4081 15.8422C16.5703 15.7414 16.6881 15.5333 16.6638 15.2509C16.6096 14.6193 16.3799 13.9532 16.1261 13.3938C15.9428 12.9896 15.4912 12.7083 14.9135 12.7083H5.08691ZM2.35639 12.7054C2.86301 11.5884 3.99429 11.0416 5.08691 11.0416H14.9135C16.0061 11.0416 17.1374 11.5884 17.644 12.7054C17.935 13.347 18.2472 14.2096 18.3244 15.1084C18.3946 15.9269 18.0544 16.7815 17.2876 17.2579C16.1596 17.9586 13.8665 18.9583 10.0002 18.9583C6.13386 18.9583 3.84078 17.9586 2.71283 17.2579C1.94595 16.7815 1.60575 15.9269 1.676 15.1084C1.75315 14.2096 2.0654 13.347 2.35639 12.7054Z" fill="#424551"/>
</svg>
